<?xml version="1.0" encoding="utf-8"?>
<!-- Generator: Adobe Illustrator 16.0.0, SVG Export Plug-In . SVG Version: 6.00 Build 0)  -->
<!DOCTYPE svg PUBLIC "-//W3C//DTD SVG 1.1//EN" "http://www.w3.org/Graphics/SVG/1.1/DTD/svg11.dtd">
<svg version="1.1" xmlns="http://www.w3.org/2000/svg" xmlns:xlink="http://www.w3.org/1999/xlink" x="0px" y="0px"
	 width="1554.156px" height="1101.362px" viewBox="0 0 1554.156 1101.362" enable-background="new 0 0 1554.156 1101.362"
	 xml:space="preserve">
<g id="background">
</g>
<g id="design">
	<g>
		<path fill="#303644" d="M473.164,207.831l-26.174-11.615l-9.586-21.572l-28.763-19.975l-26.368,8.866l-20.749-34.908
			l-36.152-31.161l-22.195,28.117l-40.748,25.891l-16.777-14.383l-26.604,19.714l-17.34,26.225l-26.389,11.22L146.58,237.76H487.46
			L473.164,207.831z M210.497,189.024l15.18-27.964l19.975-12.783l11.163,10.446l-21.55,37.192l-51.932,5.891L210.497,189.024z
			 M311.167,201.806l-79.897,17.58l32.759-57.528l46.338-27.964l15.182-23.968v42.345l-32.758,30.053l29.562,0.705L311.167,201.806z
			 M317.926,173.259l28.316-20.189l7.269,17.932L317.926,173.259z M386.832,170.333l18.612-7.49l4.794,24.583l-9.586,14.379
			l-10.389-6.389L386.832,170.333z M437.404,226.145l-38.869-0.152l42.863-22.824l20.104,7.971L437.404,226.145z"/>
		<path fill="#303644" d="M441.742,746.269"/>
		<path fill="#303644" d="M1411.323,446.713l-25.704-12.857l-33.264-52.158h-22.681l-23.333,22.571l-19.001-21.059l-24.192-6.048
			l-20.646-39.313h-36.134l-45.811,56.7l-25.928,6.049l-55.942,69.143h350.779L1411.323,446.713z M1143.702,425.042l65.52-81.144
			h29.231l-27.843,30.841l-11.78,29.479L1143.702,425.042z M1260.628,422.522l-38.776,17.639l-0.031-20.048l27.721-22.288
			l11.087-14.643l21.167,5.068l-6.277,19.317L1260.628,422.522z M1333.053,421.401l-45.402,13.054l20.932-25.037l22.884-22.958
			l16.857-0.43l-13.466,15.806L1333.053,421.401z M1365.592,455.332l15.839-15.171l24.199,10.587L1365.592,455.332z"/>
		<path fill="#303644" d="M895.078,145.957l-45.942,29.596l-61.804-77.238l-58.308,60.636l-32.16-20.934l-80.071,98.895h351.795
			L895.078,145.957z M735.259,197.931c-6.235,5.414-21.985,16.963-35.113,9.745c-13.127-7.218-10.829-33.205-10.829-33.205
			l-10.502-1.444l17.394-20.211l31.831,20.934l8.533-6.137l16.079,27.432C752.652,195.044,741.494,192.517,735.259,197.931z
			 M794.661,152.815l-27.568,19.851l-6.564-18.047H745.76l41.571-45.115c0,0-2.846,15.52,1.75,20.934
			c4.594,5.414,15.751-0.36,18.049,5.054c2.297,5.413,8.859,32.121,8.859,32.121L794.661,152.815z M854.713,179.885
			c0,0,19.034,2.526,25.926-5.053c6.892-7.58,12.798-19.13,12.798-19.13l34.458,44.756
			C927.895,200.458,884.458,214.418,854.713,179.885z"/>
		<path fill="#303644" d="M1395.199,199.417c-7.58-10.467-24.904-10.466-40.782-16.29c-15.883-5.824-27.07-25.216-36.455-32.435
			c-9.386-7.219-19.85,0.722-19.85,0.722s-15.159-15.52-24.545-24.182c-9.386-8.663-16.602-1.805-16.602-1.805
			s-21.296-20.934-27.793-27.43c-6.496-6.497-11.91-3.249-25.986,7.58c-14.076,10.828-117.664,134.986-117.664,134.986h337.109
			C1422.631,240.563,1402.778,209.884,1395.199,199.417z M1390.507,219.269c-11.551-2.166-31.762-6.857-38.62-4.332
			c-6.856,2.526-17.325,9.744-30.318,8.301s-17.684-7.939-25.986-10.466c-8.299-2.527-16.24,11.206-31.037,10.656
			c-14.8-0.55-19.492-14.625-25.269-20.4c-5.773-5.776-11.91-1.445-18.767-9.385s-15.882-25.626-7.22-20.573
			s41.146,22.016,43.312,13.354c2.165-8.662-7.577-15.246-18.044-18.812c-10.468-3.565-12.634-8.979-4.331-14.393
			c8.299-5.414,5.412-9.745-0.363-14.077c-5.773-4.331,1.446-11.188-6.134-14.076c-7.579-2.888-24.219-1.459-21.655-7.579
			c0,0,10.104-20.935,20.573-13.355c10.464,7.579,19.126,17.686,20.209,25.266s0,11.187,5.055,15.88
			c5.054,4.693,0.721,12.271,4.69,20.573c3.972,8.302,6.86,7.58,13.356,5.414c6.497-2.166,8.663-1.804,14.076,2.888
			c5.414,4.692,2.525,12.272,7.939,14.799c5.414,2.526,13.354,3.969,15.519,10.105c2.166,6.136,7.579,7.58,6.138,0
			c-1.442-7.58-7.219-13.354-12.271-14.437c-5.055-1.083-9.386-10.106-10.469-13.355c-1.083-3.248-0.723-6.858-8.303-8.662
			c-7.579-1.804-11.547-4.598-13.712-9.156c-2.166-4.559-8.303-18.636-3.972-20.079s7.579,2.527,13.717,8.302
			c6.133,5.774,36.091,33.566,41.146,37.897c5.05,4.331,7.579,0.722,5.414-3.609c-2.166-4.331-9.745-15.16-9.745-16.604
			s5.526,1.718,10.523,8.258c4.995,6.54,19.794,29.639,24.485,32.527c4.69,2.888,25.266,4.693,32.124,8.302
			C1389.425,212.049,1402.059,221.434,1390.507,219.269z"/>
		<path fill="#303644" d="M1311.464,584.337c-14.076-11.911-38.438,4.872-38.438,4.872l-52.516-36.272l-145.635,148.342h358.402
			C1433.278,701.278,1325.541,596.248,1311.464,584.337z M1228.631,609.783c-8.121,2.707-20.031,36.272-43.312,41.145
			c-23.28,4.873-40.282,2.453-59.012,9.745l95.826-94.743l51.433,39.521C1273.567,605.451,1236.752,607.076,1228.631,609.783z
			 M1307.494,589.209c2.345,2.348-3.608,5.055-3.429,8.844c0.182,3.789,25.266,37.176,25.266,37.176l-48.726-38.439
			C1287.282,586.863,1305.149,586.863,1307.494,589.209z"/>
		<path fill="#303644" d="M427.463,608.517c-22.018,30.318-37.536,18.769-49.808,3.97c-12.272-14.798-22.377-40.784-27.431-47.643
			c-5.054-6.856-14.437,1.083-22.017-2.887c-7.579-3.97-16.964-21.295-16.964-21.295s-53.778,70.021-61.719,73.269
			c-7.939,3.248-15.881-14.438-15.881-14.438s-17.686,27.792-26.708,41.868c-3.608,0.724-18.407-1.806-28.152,7.939
			s-37.897,51.974-37.897,51.974h352.266C493.153,701.274,451.646,640.279,427.463,608.517z M176.257,683.229
			c-7.218-4.692,9.385-26.349,9.385-26.349s-5.414,15.521,0,15.159c5.414-0.359,13.716-5.773,14.076-1.442
			S183.475,687.922,176.257,683.229z M271.904,686.839c-4.692,3.607-25.987,5.982-29.597-2.604
			c-3.608-8.586-5.052-26.632-29.596-30.604l21.656-36.092l21.295,39.34l7.579-6.496l20.934,33.852
			C284.175,684.235,276.597,683.23,271.904,686.839z M336.509,667.708l-15.52-46.737l-31.04,32.855c0,0-14.438-10.66-16.241-24.016
			c-1.805-13.353,0-24.181,0-24.181l37.536-49.448c0,0,5.414,14.076,14.076,16.604c8.662,2.526,17.686-3.608,19.49,5.775
			c1.806,9.383,2.526,59.912,2.526,67.854S336.509,667.708,336.509,667.708z M364.301,637.03c-0.36-12.27-4.331-34.289-4.331-34.289
			s25.626,40.063,24.904,64.967C369.355,670.956,364.662,649.301,364.301,637.03z M429.991,686.478
			c-15.881-5.414-25.987-17.323-27.069-23.46c-1.083-6.138,2.526-10.084,7.219-9.191c4.691,0.889,13.716-1.637,15.159-9.578
			c1.443-7.94,2.014-19.221,4.691-17.686c3.756,2.157,7.219,11.189,9.745,20.935s6.498,22.74,11.55,25.266
			c5.053,2.525,19.129,17.35,19.129,17.35S445.872,691.891,429.991,686.478z"/>
		<path fill="#303644" d="M616.556,967.013h352.268c0,0-28.152-42.229-37.897-51.974c-9.744-9.745-24.543-7.218-28.152-7.939
			c-9.022-14.076-26.708-33.364-26.708-33.364s-7.94,9.181-15.881,5.933s-44.712-70.433-44.712-70.433s-26.392,14.488-33.973,18.458
			c-7.58,3.971-16.964-3.969-22.018,2.889c-5.053,6.857-15.157,32.844-27.43,47.643s-27.791,34.853-49.809,4.534
			C658.062,914.521,616.556,967.013,616.556,967.013z M909.993,936.334c0.361-4.331,8.662,1.083,14.076,1.443
			c5.414,0.361,0-15.158,0-15.158s16.603,21.655,9.385,26.347C926.236,953.658,909.632,940.665,909.993,936.334z M825.536,949.973
			l20.934-33.851l7.58,6.497l21.295-30.837L897,919.37c-24.544,3.971-25.987,22.017-29.596,30.603s-24.903,6.212-29.597,2.604
			C833.114,948.967,825.536,949.973,825.536,949.973z M762.372,912.151c0-7.941,0.721-58.471,2.525-67.854
			c1.806-9.383,10.828-3.248,19.492-5.775c8.663-2.527,31.084-13.767,31.084-13.767l-0.998,38.787c0,0,16.305,11.229,14.5,24.582
			c-1.803,13.354-22,12.418-22,12.418l-14.283,45.5l-19.493-12.596C773.199,933.446,762.372,920.092,762.372,912.151z
			 M724.834,933.446c-0.723-24.903,24.903-64.967,24.903-64.967s-3.97,22.017-4.331,34.288
			C745.046,915.039,740.354,936.695,724.834,933.446z M639.294,955.849c0,0,14.076-14.823,19.128-17.349
			c5.053-2.526,9.024-15.521,11.551-25.266c2.525-9.746,5.989-10.272,9.745-12.429c2.677-1.537,3.248,1.239,4.691,9.181
			c1.443,7.939,10.467,10.467,15.159,9.576c4.691-0.891,8.302,3.057,7.219,9.192s-11.188,18.046-27.069,23.46
			C663.836,957.628,639.294,955.849,639.294,955.849z"/>
		<path fill="#303644" d="M491.021,929.834c-4.177-7.937-8.773-10.446-15.459-10.446c-6.685,0-13.367-0.832-20.053-8.352
			c-6.686-7.521-4.177-16.293-11.697-21.306c-7.52-5.014-13.785-11.702-21.306-16.715c-7.52-5.014-11.697,0-14.204,4.181
			c-2.506,4.177-12.533,20.054-12.533,20.054s-10.445-9.193-15.458-14.625c-5.012-5.429-8.772-16.292-15.039-20.89
			c-6.267-4.594-15.875-21.307-20.888-25.481c-5.014-4.176-2.506-18.384-11.698-26.735c-9.192-8.357-11.698-4.18-15.457,2.085
			c-3.76,6.267-5.431,11.701-8.773,13.787c-3.342,2.09-10.025,10.026-14.204,18.382c-4.177,8.358-16.293,23.814-16.293,23.814
			s-21.306-20.053-25.483-19.637c-4.179,0.418-9.608,17.547-20.471,30.915c-10.862,13.371-27.99,32.587-38.435,35.094
			c-2.507,6.683-8.354,12.947-25.065,23.813c-16.712,10.863-47.626,29.241-47.626,29.241s362.204,0,392.283,0
			C503.552,962.418,495.197,937.771,491.021,929.834z M269.604,939.44c-8.773,2.507-20.89,4.181-29.662-2.085
			c-8.773-6.267-32.586-5.016-44.283-1.674c35.51-24.646,58.19-72.907,60.994-70.601c0,0,13.785,10.859,14.621,15.454
			c0.836,4.598-7.938,10.029-2.506,16.715c5.432,6.681,12.951,8.772,12.951,12.948c0,4.177-5.014,14.205,0,19.636
			s6.684,11.28,6.684,11.28S278.376,936.935,269.604,939.44z M345.638,913.959c-5.014,0.837-15.041-8.774-19.219-14.203
			c-4.179-5.431-12.114-5.013-18.381-6.687c-6.267-1.669-22.142-16.71-22.142-16.71c2.089-7.935,20.053-26.735,23.812-35.508
			c3.761-8.773,10.028-15.877,15.457-18.385c5.432-2.506,2.926,11.697,5.432,16.294c2.508,4.596,1.254,11.695,5.014,16.293
			c3.76,4.597,17.546,24.229,13.368,28.825c-4.18,4.598-9.608-10.441-10.026-3.344c-0.418,7.104,5.85,11.281,10.026,18.383
			C353.157,906.022,350.651,913.122,345.638,913.959z M412.062,920.226c-5.848-6.267-10.444-16.881-10.444-16.881
			s8.773-14.116,10.444-17.419c1.671-3.301,4.595,0.461,5.849,6.728c1.253,6.265-3.76,15.039,6.686,19.215
			c10.442,4.181,25.483,19.118,28.825,29.818C435.039,935.682,417.912,926.49,412.062,920.226z"/>
		<g>
			<path fill="#303644" d="M127.893,464.784c0,0,87.345-85.901,93.12-91.314c5.774-5.414,10.104-11.549,16.963-6.497
				c6.858,5.052,36.814,24.904,36.814,24.904s48.365-39.703,53.418-44.034c5.052-4.331,11.909-9.746,20.211-3.971
				c8.302,5.776,32.483,21.295,32.483,21.295s9.745-5.415,15.159-8.302s12.632-6.136,20.573,3.249
				c7.941,9.384,89.511,98.895,89.511,98.895s-38.98-28.151-45.478-35.009c-6.496-6.858-24.542-20.935-30.679-23.1
				c-6.136-2.166-12.633,2.173-12.633,2.173l-2.165,14.431l-16.242-10.468l-22.738,2.888c0,0,12.633-16.242,6.136-16.242
				c-6.496,0-19.13,5.788-24.183,9.391c-5.052,3.603-21.655,37.529-32.844,37.529c11.55-25.987,36.814-56.306,40.063-60.275
				c3.249-3.969,0-8.3-2.165-12.271c-2.166-3.971-19.852-20.572-22.378-18.768c-2.526,1.804-20.212,15.158-19.851,22.377
				c0.36,7.219-2.165,13.715,5.053,12.994s16.241-7.219,18.046-14.077c6.858,11.911,4.331,24.182-5.774,29.235
				s-31.04,12.271-31.4,25.987c-5.774-10.828-7.58-23.821-3.249-30.318c-17.324,14.798-16.602,29.597-38.258,29.958
				c-10.828,11.188-22.378,23.46-22.378,23.46s19.851,10.466,32.845,6.135c12.993-4.331,14.798-20.212,21.295-18.407
				c6.496,1.805,1.083,22.016-20.573,24.904c-21.655,2.888-55.943-4.331-69.298,0.722c7.939-11.55,16.964-9.745,27.069-17.325
				c10.105-7.579,28.874-36.454,28.874-36.454s-9.744,0.723-14.798-2.526s-5.775-17.326-18.047-15.881s-14.798,8.315-16.964,13.001
				c-2.165,4.686-5.052,13.348-14.437,16.596c-9.385,3.249-23.461,13.355-28.152,25.987c9.022,1.804,18.047,14.076,18.047,14.076
				s-11.189-0.721-15.521,1.083c-4.332,1.804-11.188,5.414-11.188,5.414S160.016,455.039,127.893,464.784z"/>
			<path fill="#303644" d="M333.26,455.761c0,0,15.882-12.272,20.573-19.129c5.054,10.828,0,24.183,0,24.183
				S338.674,463.701,333.26,455.761z"/>
			<path fill="#303644" d="M398.95,448.979c0,0,9.022-5.129,16.963-3.685c7.941,1.444,14.076,2.347,15.882,1.715
				c1.805-0.633,1.444-8.211,8.302-6.768c6.856,1.443,11.187,10.466,12.631,15.52c1.445,5.053-17.324,2.166-26.889,0
				C416.275,453.595,398.95,448.979,398.95,448.979z"/>
		</g>
		<polygon fill="#303644" points="625.127,460.37 681.973,387.283 710.125,394.862 756.145,347.22 779.425,370.5 787.547,364.544 
			822.198,403.795 864.967,377.538 896.369,403.795 909.362,393.238 960.252,438.173 909.091,406.502 919.107,435.195 
			864.426,385.659 833.837,405.961 857.118,457.663 787.277,376.726 778.884,381.598 755.332,359.13 703.899,460.37 
			707.689,403.795 683.868,395.945 		"/>
		<polygon fill="#303644" points="1087.256,950.849 1163.458,885.099 1191.879,901.649 1218.654,877.278 1237.189,877.278 
			1268.905,825.399 1318.745,889.233 1344.694,866.704 1420.897,946.713 1411.012,948.55 1385.061,920.044 1372.704,925.56 
			1375.588,912.687 1343.047,879.118 1315.038,909.007 1323.688,943.034 1298.151,915.446 1256.547,938.435 1283.733,904.867 
			1307.211,898.431 1269.317,846.314 1225.923,917.745 1217.454,899.387 1177.461,944.415 1182.405,915.903 1163.045,899.81 
			1101.261,950.849 		"/>
		<path fill="#303644" d="M873.55,590.81l-26.953,16.768l-49.73-66.573l-42.897,51.781l-12.528-10.358l-120.34,115.888l343.178,2.96
			L873.55,590.81z M710.691,644.686c0,0-1.424-14.423,8.543-25.151c9.963-10.725,20.498-19.23,23.059-30.326l9.113,8.506
			L710.691,644.686z M823.439,610.659c-9.107-8.507-31.602,8.136-42.424,15.165c8.545-37.356,6.267-56.22,3.419-59.55l13.099-17.382
			l81.426,109.851C878.958,658.743,832.552,619.165,823.439,610.659z M885.367,630.263c-2.422,0.74-5.98-0.188-10.107-3.884
			c-4.131-3.7-4.84-31.254-1.709-28.85l41.568,53.26c0,0-16.516-14.055-20.783-17.938
			C890.064,628.965,887.785,629.523,885.367,630.263z"/>
	</g>
</g>
<g id="vexels">
	<g>
		<g>
			<path fill="#303644" d="M723.329,1062.787c-1.805-0.067-3.504-0.456-5.101-1.166c-1.586-0.708-2.977-1.657-4.146-2.865
				c-1.174-1.193-2.097-2.594-2.774-4.186c-0.686-1.581-1.024-3.292-1.024-5.109v-12.088c0-0.537,0.195-0.997,0.593-1.385
				c0.388-0.395,0.853-0.591,1.395-0.591c0.577,0,1.054,0.196,1.429,0.591c0.376,0.388,0.556,0.848,0.556,1.385v12.088
				c0,1.137,0.204,2.226,0.589,3.256c0.392,1.039,0.94,1.96,1.631,2.773c0.694,0.812,1.51,1.492,2.446,2.048
				c0.931,0.557,1.935,0.944,3.034,1.146v-21.311c0-0.537,0.189-0.997,0.583-1.385c0.386-0.395,0.872-0.591,1.447-0.591
				c0.549,0,1,0.196,1.378,0.591c0.379,0.388,0.559,0.848,0.559,1.385v23.435c0,0.55-0.18,1.017-0.559,1.399
				c-0.378,0.393-0.848,0.58-1.434,0.58H723.329z"/>
			<path fill="#303644" d="M736.975,1035.551c1.085,0,2.114,0.221,3.079,0.638c0.969,0.417,1.81,0.988,2.523,1.691
				c0.713,0.72,1.275,1.559,1.712,2.521c0.425,0.965,0.633,1.979,0.633,3.063v0.963c0,1.085-0.208,2.1-0.633,3.069
				c-0.437,0.967-0.999,1.797-1.712,2.516c-0.714,0.704-1.555,1.274-2.523,1.696c-0.965,0.422-1.994,0.634-3.079,0.634h-4.02v2.525
				c0,1.089,0.384,2.022,1.167,2.799c0.781,0.782,1.717,1.17,2.805,1.17c0.879,0,1.67-0.26,2.355-0.758
				c0.705-0.517,1.184-1.188,1.463-2.041c0.169-0.532,0.485-0.931,0.973-1.188c0.473-0.25,0.982-0.288,1.521-0.121
				c0.508,0.169,0.901,0.489,1.17,0.965c0.275,0.469,0.328,0.958,0.158,1.461c-0.55,1.688-1.516,3.058-2.907,4.089
				c-1.396,1.036-2.97,1.544-4.733,1.544c-1.088,0-2.112-0.207-3.082-0.629c-0.971-0.431-1.807-0.992-2.529-1.705
				c-0.704-0.705-1.277-1.544-1.706-2.503c-0.422-0.968-0.63-1.993-0.63-3.082v-11.403c0-1.084,0.208-2.099,0.63-3.063
				c0.429-0.963,1.002-1.802,1.706-2.521c0.723-0.703,1.559-1.274,2.529-1.691C734.815,1035.771,735.855,1035.551,736.975,1035.551z
				 M732.956,1048.439h4.02c1.085,0,2.022-0.396,2.809-1.197c0.778-0.791,1.16-1.729,1.16-2.814v-0.963
				c0-1.084-0.382-2.009-1.16-2.789c-0.786-0.772-1.724-1.165-2.809-1.165c-1.12,0-2.071,0.393-2.853,1.165
				c-0.783,0.78-1.167,1.705-1.167,2.789V1048.439z"/>
			<path fill="#303644" d="M759.748,1043.215c0-0.272-0.023-0.474-0.053-0.613c-0.038-0.129-0.06-0.229-0.06-0.302
				c-0.13-0.643-0.473-1.256-1.019-1.822c-0.742-0.742-1.656-1.125-2.75-1.125c-1.113,0-2.034,0.383-2.748,1.125
				c-0.745,0.739-1.117,1.669-1.117,2.78v11.726c0,1.078,0.372,1.999,1.117,2.728c0.745,0.752,1.668,1.126,2.748,1.126
				c1.024,0,1.938-0.374,2.75-1.126c0.755-0.811,1.131-1.722,1.131-2.728c0-0.546,0.188-1.006,0.557-1.39
				c0.366-0.398,0.843-0.591,1.428-0.591c0.539,0,1.007,0.192,1.395,0.591c0.389,0.384,0.592,0.844,0.592,1.39
				c0,2.128-0.781,3.973-2.344,5.521c-1.528,1.529-3.366,2.282-5.508,2.282c-2.166,0-4.019-0.753-5.552-2.282
				c-1.554-1.549-2.342-3.394-2.342-5.521v-11.726c0-2.155,0.788-4.025,2.342-5.574c1.533-1.558,3.386-2.338,5.552-2.338
				c2.142,0,3.979,0.78,5.508,2.338c1.527,1.549,2.309,3.385,2.344,5.475v0.057c-0.035,0.543-0.236,0.988-0.615,1.362
				c-0.374,0.379-0.832,0.562-1.371,0.562c-0.551,0-1.016-0.183-1.409-0.562C759.942,1044.203,759.748,1043.758,759.748,1043.215z"
				/>
			<path fill="#303644" d="M774.611,1058.837c0.441,0.033,0.914,0.216,1.398,0.562c0.5,0.331,0.738,0.805,0.738,1.409
				c0,0.579-0.189,1.055-0.572,1.428c-0.398,0.369-0.858,0.552-1.411,0.552c-2.205,0-4.093-0.782-5.65-2.334
				c-1.565-1.554-2.336-3.409-2.336-5.585v-17.543c0-0.57,0.193-1.046,0.585-1.414c0.381-0.374,0.873-0.565,1.447-0.565
				c0.544,0,1.009,0.191,1.394,0.565c0.396,0.368,0.58,0.844,0.58,1.414v0.767h2.251c0.546,0,1.019,0.196,1.404,0.584
				c0.379,0.384,0.589,0.849,0.589,1.392c0,0.574-0.21,1.049-0.589,1.423c-0.386,0.379-0.858,0.551-1.404,0.551h-2.251v12.827
				c0,1.021,0.403,1.955,1.178,2.799C772.68,1058.377,773.565,1058.765,774.611,1058.837z"/>
			<path fill="#303644" d="M793.56,1037.684c1.563,1.549,2.344,3.398,2.344,5.531v11.769c0,2.09-0.781,3.916-2.344,5.47
				c-1.524,1.552-3.375,2.334-5.551,2.334h-0.863c-2.145,0-3.974-0.782-5.504-2.334c-1.562-1.511-2.342-3.342-2.342-5.47v-11.769
				c0-2.171,0.78-4.007,2.342-5.531c1.56-1.558,3.394-2.338,5.504-2.338h0.863C790.15,1035.346,792.002,1036.126,793.56,1037.684z
				 M791.879,1043.215c0-1.087-0.371-1.998-1.114-2.737c-0.752-0.713-1.667-1.063-2.756-1.063h-0.819
				c-1.043,0-1.984,0.35-2.795,1.063c-0.742,0.807-1.117,1.723-1.117,2.737v11.769c0,1.006,0.375,1.917,1.117,2.728
				c0.811,0.713,1.752,1.078,2.795,1.078h0.819c1.089,0,2.004-0.365,2.756-1.078c0.743-0.729,1.114-1.649,1.114-2.728V1043.215z"/>
			<path fill="#303644" d="M799.116,1043.215c0-2.198,0.767-4.059,2.296-5.578c1.521-1.559,3.386-2.334,5.596-2.334
				c0.549,0,1.012,0.191,1.401,0.579c0.392,0.389,0.586,0.853,0.586,1.39c0,0.651-0.247,1.137-0.736,1.452
				c-0.493,0.322-0.958,0.498-1.399,0.532c-1.057,0.063-1.943,0.46-2.648,1.175c-0.747,0.732-1.129,1.664-1.129,2.784v15.822
				c0,1.056-0.388,1.941-1.167,2.661c-0.782,0.724-1.716,1.089-2.799,1.089V1043.215z"/>
		</g>
		<path fill="#303644" d="M826.847,1035.341h-0.872c-2.099,0-3.934,0.776-5.484,2.329c-1.565,1.52-2.338,3.351-2.338,5.518v11.762
			c0,2.119,0.772,3.945,2.338,5.45c1.524,1.563,3.351,2.345,5.484,2.345h0.872c2.168,0,4.017-0.782,5.545-2.345
			c1.557-1.538,2.336-3.355,2.336-5.45v-11.762c0-2.119-0.779-3.966-2.336-5.518C830.83,1036.117,828.987,1035.341,826.847,1035.341
			z M830.706,1054.949c0,1.073-0.37,1.989-1.11,2.724c-0.75,0.718-1.67,1.064-2.748,1.064h-0.815c-1.048,0-1.984-0.347-2.799-1.064
			c-0.744-0.807-1.116-1.722-1.116-2.724v-11.762c0-1.012,0.372-1.923,1.116-2.732c0.814-0.71,1.751-1.073,2.799-1.073h0.815
			c1.078,0,1.998,0.363,2.748,1.073c0.74,0.742,1.11,1.657,1.11,2.732V1054.949z M845.82,1035.341c-2.137,0-3.984,0.776-5.547,2.329
			c-1.563,1.552-2.334,3.398-2.334,5.518v25.336c1.124,0,2.058-0.388,2.845-1.116c0.778-0.715,1.162-1.605,1.162-2.694v-1.969h3.874
			c2.171,0,4.016-0.782,5.54-2.345c1.565-1.538,2.339-3.355,2.339-5.45v-11.762c0-2.119-0.773-3.966-2.339-5.518
			C849.811,1036.117,847.954,1035.341,845.82,1035.341z M849.679,1054.949c0,1.03-0.35,1.951-1.062,2.724
			c-0.818,0.718-1.741,1.064-2.798,1.064h-3.874v-15.55c0-1.075,0.379-1.99,1.127-2.732c0.812-0.71,1.727-1.073,2.747-1.073
			c1.057,0,1.979,0.363,2.798,1.073c0.712,0.742,1.062,1.657,1.062,2.732V1054.949z M870.085,1037.871
			c-0.706-0.715-1.549-1.27-2.52-1.697c-0.967-0.422-1.994-0.637-3.076-0.637c-1.12,0-2.162,0.215-3.133,0.637
			c-0.967,0.428-1.802,0.982-2.517,1.697c-0.71,0.71-1.28,1.544-1.702,2.507c-0.427,0.963-0.64,1.984-0.64,3.063v11.403
			c0,1.079,0.213,2.101,0.64,3.059c0.422,0.968,0.992,1.803,1.702,2.497c0.715,0.719,1.55,1.29,2.517,1.711
			c0.971,0.417,1.988,0.634,3.083,0.634c1.758,0,3.339-0.509,4.722-1.544c1.397-1.031,2.368-2.393,2.904-4.084
			c0.174-0.513,0.121-0.987-0.157-1.462c-0.261-0.479-0.653-0.796-1.164-0.964c-0.543-0.172-1.046-0.129-1.519,0.126
			c-0.479,0.253-0.805,0.651-0.971,1.192c-0.272,0.839-0.757,1.511-1.453,2.022c-0.698,0.508-1.48,0.758-2.362,0.758
			c-1.095,0-2.022-0.388-2.797-1.17c-0.783-0.771-1.176-1.696-1.176-2.775v-2.54h4.022c1.082,0,2.109-0.202,3.076-0.633
			c0.971-0.417,1.813-0.983,2.52-1.702c0.71-0.699,1.278-1.538,1.7-2.497c0.423-0.967,0.637-1.983,0.637-3.068v-0.963
			c0-1.078-0.214-2.1-0.637-3.063C871.364,1039.415,870.795,1038.581,870.085,1037.871z M868.458,1044.403
			c0,1.085-0.39,2.024-1.17,2.814c-0.781,0.791-1.717,1.194-2.799,1.194h-4.022v-4.972c0-1.078,0.393-2.007,1.176-2.784
			c0.774-0.781,1.727-1.171,2.847-1.171c1.082,0,2.018,0.39,2.799,1.171c0.78,0.777,1.17,1.706,1.17,2.784V1044.403z
			 M883.302,1035.341c-1.352,0-2.688,0.368-4.012,1.121c-0.376-0.753-0.979-1.121-1.831-1.121c-0.546,0-1,0.196-1.383,0.603
			c-0.397,0.403-0.606,0.854-0.606,1.366v25.435c1.131,0,2.057-0.37,2.799-1.112c0.81-0.781,1.226-1.673,1.226-2.685v-15.76
			c0-1.051,0.357-1.941,1.065-2.676c0.748-0.751,1.661-1.13,2.742-1.13c1.024,0,1.946,0.363,2.757,1.073
			c0.747,0.742,1.124,1.657,1.124,2.732v19.557c1.112,0,2.049-0.37,2.79-1.112c0.778-0.748,1.176-1.645,1.176-2.685v-15.76
			c0-2.167-0.774-3.998-2.3-5.518C887.291,1036.117,885.448,1035.341,883.302,1035.341z M915.635,1048.484
			c-0.762-0.764-1.653-1.362-2.671-1.799c-1.016-0.436-2.1-0.661-3.256-0.661h-0.559c-0.953,0-1.762-0.326-2.415-0.987
			c-0.667-0.651-0.998-1.452-0.998-2.406c0-0.911,0.322-1.702,0.969-2.354c0.653-0.666,1.445-0.988,2.382-0.988
			c0.922,0,1.707,0.318,2.357,0.959c0.363,0.369,0.834,0.565,1.396,0.565c0.554,0,1.021-0.196,1.401-0.565
			c0.367-0.373,0.554-0.833,0.554-1.39c0-0.561-0.187-1.021-0.554-1.396c-0.682-0.67-1.464-1.188-2.343-1.538
			c-0.888-0.354-1.814-0.532-2.813-0.532c-1.006,0-1.955,0.188-2.835,0.551c-0.889,0.379-1.658,0.888-2.309,1.544
			c-0.665,0.666-1.197,1.435-1.585,2.312c-0.396,0.877-0.588,1.82-0.588,2.832c0,1.017,0.192,1.96,0.588,2.837
			c0.388,0.884,0.92,1.65,1.585,2.302c0.65,0.661,1.42,1.184,2.309,1.572c0.88,0.393,1.829,0.584,2.835,0.584l0.57,0.043
			c1.25,0,2.315,0.437,3.184,1.3c0.852,0.862,1.296,1.897,1.296,3.11c0,1.218-0.444,2.268-1.296,3.141
			c-0.868,0.882-1.915,1.322-3.133,1.322c-1.016,0-1.926-0.303-2.721-0.916c-0.797-0.604-1.338-1.394-1.603-2.386
			c-0.132-0.527-0.442-0.94-0.909-1.213c-0.482-0.26-0.989-0.312-1.538-0.149c-0.503,0.172-0.901,0.489-1.167,0.945
			c-0.268,0.46-0.336,0.949-0.2,1.48c0.511,1.831,1.523,3.307,3.023,4.443c1.505,1.131,3.211,1.697,5.114,1.697
			c1.156,0,2.24-0.221,3.256-0.667c1.018-0.436,1.909-1.03,2.671-1.798c0.766-0.748,1.371-1.634,1.808-2.66
			c0.443-1.016,0.658-2.084,0.658-3.24c0-1.146-0.215-2.224-0.658-3.235C917.006,1050.128,916.401,1049.24,915.635,1048.484z
			 M929.874,1059.346c-0.486-0.34-0.95-0.522-1.388-0.557c-1.058-0.067-1.939-0.451-2.649-1.17
			c-0.784-0.839-1.171-1.769-1.171-2.775v-12.821h2.242c0.538,0,1.002-0.183,1.395-0.562c0.396-0.358,0.587-0.844,0.587-1.409
			c0-0.546-0.191-1.006-0.587-1.398c-0.393-0.385-0.856-0.577-1.395-0.577h-2.242v-0.767c0-0.575-0.192-1.044-0.584-1.414
			c-0.396-0.374-0.86-0.555-1.399-0.555c-0.583,0-1.057,0.181-1.443,0.555c-0.396,0.37-0.589,0.839-0.589,1.414v17.534
			c0,2.157,0.776,4.018,2.339,5.556c1.558,1.563,3.435,2.345,5.649,2.345c0.539,0,0.999-0.188,1.395-0.552
			c0.384-0.384,0.58-0.854,0.58-1.428C930.613,1060.16,930.378,1059.69,929.874,1059.346z M941.85,1035.341h-0.855
			c-2.095,0-3.934,0.776-5.498,2.329c-1.555,1.52-2.334,3.351-2.334,5.518v11.762c0,2.119,0.779,3.945,2.334,5.45
			c1.534,1.563,3.363,2.345,5.498,2.345h0.855c2.181,0,4.031-0.782,5.553-2.345c1.554-1.538,2.337-3.355,2.337-5.45v-11.762
			c0-2.119-0.783-3.966-2.337-5.518C945.843,1036.117,943.997,1035.341,941.85,1035.341z M945.736,1054.949
			c0,1.073-0.387,1.989-1.13,2.724c-0.755,0.718-1.656,1.064-2.756,1.064h-0.808c-1.037,0-1.981-0.347-2.799-1.064
			c-0.741-0.807-1.12-1.722-1.12-2.724v-11.762c0-1.012,0.379-1.923,1.12-2.732c0.817-0.71,1.762-1.073,2.799-1.073h0.808
			c1.1,0,2.001,0.363,2.756,1.073c0.743,0.742,1.13,1.657,1.13,2.732V1054.949z M960.832,1035.341c-2.172,0-4.015,0.776-5.545,2.329
			c-1.562,1.552-2.353,3.403-2.353,5.565v11.714c0,2.119,0.791,3.96,2.353,5.513c1.53,1.509,3.373,2.282,5.545,2.282
			c2.143,0,3.972-0.773,5.488-2.282c1.57-1.553,2.346-3.394,2.346-5.513c0-0.546-0.191-1.015-0.581-1.404
			c-0.39-0.384-0.854-0.58-1.402-0.58c-0.571,0-1.048,0.196-1.422,0.58c-0.38,0.39-0.563,0.858-0.563,1.404
			c0,1.002-0.367,1.917-1.109,2.724c-0.823,0.747-1.74,1.116-2.757,1.116c-1.092,0-2.001-0.369-2.751-1.116
			c-0.742-0.734-1.107-1.65-1.107-2.724v-11.714c0-1.112,0.365-2.038,1.107-2.78c0.719-0.744,1.625-1.116,2.751-1.116
			c1.081,0,1.993,0.372,2.757,1.116c0.531,0.565,0.871,1.179,0.999,1.815c0,0.072,0.025,0.174,0.067,0.309
			c0.028,0.133,0.043,0.339,0.043,0.608c0,0.537,0.199,0.992,0.584,1.371c0.396,0.368,0.854,0.555,1.4,0.555
			c0.549,0,0.999-0.187,1.374-0.555c0.371-0.379,0.576-0.834,0.609-1.371v-0.049c-0.033-2.095-0.813-3.917-2.346-5.469
			C964.803,1036.117,962.974,1035.341,960.832,1035.341z M984.171,1049.471c-0.471-0.504-0.992-0.93-1.574-1.271
			c1.226-1.413,1.844-3.087,1.844-5.013v-3.136c0-0.546-0.209-1.006-0.597-1.398c-0.388-0.385-0.848-0.577-1.388-0.577
			s-1.019,0.192-1.401,0.577c-0.399,0.393-0.578,0.853-0.578,1.398v3.136c0,1.073-0.393,2.008-1.177,2.794
			c-0.71,0.704-1.595,1.094-2.655,1.164h-0.946v-9.782c0-0.536-0.201-1.012-0.578-1.391c-0.374-0.388-0.839-0.58-1.431-0.58
			c-0.529,0-1.005,0.192-1.388,0.58c-0.389,0.379-0.575,0.854-0.575,1.391v25.381c1.084,0,2.014-0.37,2.792-1.112
			c0.776-0.748,1.18-1.63,1.18-2.642v-7.946h2.99c1.076,0.065,1.987,0.449,2.691,1.159c0.748,0.786,1.119,1.706,1.119,2.789v7.752
			c1.09,0,2.027-0.37,2.802-1.112c0.777-0.748,1.17-1.63,1.17-2.642v-3.998C986.471,1052.859,985.702,1051.023,984.171,1049.471z"/>
		<g>
			<path fill="#303644" d="M567.934,1059.951v-14.378c0-0.966,0.686-1.614,1.618-1.614h3.852c2.146,0,4.109,1.929,4.109,4.177v9.301
				c0,2.386-1.963,4.151-4.109,4.151h-3.852C568.544,1061.588,567.934,1060.808,567.934,1059.951z M570.007,1046.046
				c0,4.531,0.025,8.895,0.025,13.45h3.371c1.085,0,2.018-0.928,2.018-2.06v-9.279c0-1.124-0.933-2.111-2.018-2.111H570.007z"/>
			<path fill="#303644" d="M589.832,1046.046l-5.926,0.043v5.429h5.67v2.085h-5.67v3.777c0,1.137,0.937,2.116,2.097,2.116h3.829
				v2.092h-3.829c-2.272,0-4.183-1.957-4.183-4.208v-11.789c0-0.959,0.827-1.632,1.689-1.632h6.322V1046.046z"/>
			<path fill="#303644" d="M597.914,1043.752c2.289,0,4.636,1.689,4.636,4.939h-2.069c0-1.863-1.279-2.847-2.566-2.847
				c-1.318,0-2.598,0.75-2.598,2.146v1.457c0,1.383,1.586,1.866,2.825,2.116c2.04,0.431,4.408,1.06,4.408,4.134v1.812
				c0,2.821-2.368,4.257-4.659,4.257c-2.397,0-4.638-1.686-4.611-4.961h2.037c0,1.887,1.263,2.842,2.574,2.842
				c1.279,0,2.59-0.75,2.59-2.138v-1.812c0-1.512-1.411-1.843-2.77-2.071c-2.191-0.427-4.41-0.931-4.432-4.179v-1.457
				C593.279,1045.193,595.539,1043.752,597.914,1043.752z"/>
			<path fill="#303644" d="M606.853,1061.588v-17.629h2.09v17.629H606.853z"/>
			<path fill="#303644" d="M617.384,1051.64h3.324c0.956,0,1.637,0.66,1.637,1.586v4.283c0,2.797-2.368,4.235-4.76,4.235
				c-2.423,0-4.793-1.465-4.793-4.335v-9.393c0-2.853,2.322-4.291,4.74-4.291c2.371,0,4.738,1.688,4.765,4.988h-2.118
				c0-1.913-1.309-2.891-2.646-2.891c-1.363,0-2.668,0.75-2.668,2.193v9.393c0,1.461,1.362,2.237,2.721,2.237
				c1.361,0,2.648-0.75,2.672-2.138v-3.805h-2.873V1051.64z"/>
			<path fill="#303644" d="M635.618,1043.959v16.196c0,0.956-0.653,1.433-1.337,1.433c-0.501,0-1.184-0.354-1.434-0.903
				c-1.26-3.101-2.469-6.677-3.779-10.107c-0.453-1.207-0.957-3.649-1.182-4.309l-0.307,0.084l0.606,3.095l0.104,12.141h-2.142
				v-16.22c-0.025-0.937,0.677-1.484,1.415-1.484c0.595,0,1.354,0.374,1.476,1.005l-0.016-0.061l5.191,14.668h0.139l-0.722-3.324
				l-0.106-12.213H635.618z"/>
			<path fill="#303644" d="M647.625,1046.046l-5.915,0.043v5.429h5.668v2.085h-5.668v3.777c0,1.137,0.926,2.116,2.09,2.116h3.825
				v2.092H643.8c-2.27,0-4.183-1.957-4.183-4.208v-11.789c0-0.959,0.835-1.632,1.69-1.632h6.317V1046.046z"/>
			<path fill="#303644" d="M651.683,1059.951v-14.378c0-0.966,0.68-1.614,1.615-1.614h3.854c2.136,0,4.105,1.929,4.105,4.177v9.301
				c0,2.386-1.97,4.151-4.105,4.151h-3.854C652.287,1061.588,651.683,1060.808,651.683,1059.951z M653.747,1046.046
				c0,4.531,0.026,8.895,0.026,13.45h3.379c1.078,0,2.011-0.928,2.011-2.06v-9.279c0-1.124-0.933-2.111-2.011-2.111H653.747z"/>
			<path fill="#303644" d="M680.575,1052.114c1.665,0.258,2.466,2.044,2.466,3.252v2.095c0,2.186-2.016,4.127-4.105,4.156h-3.83
				c-1.002,0-1.615-0.632-1.615-1.666v-14.36c0-0.983,0.613-1.632,1.615-1.632h3.504c2.217,0.023,4.161,1.783,4.161,4.177v0.885
				C682.77,1049.975,682.084,1051.768,680.575,1052.114z M675.561,1046.046v5.063h3.326c1.055,0,1.81-0.954,1.81-2.088v-0.885
				c0-1.131-0.928-2.09-2.088-2.09H675.561z M680.948,1057.461v-2.095c0-1.181-0.925-2.141-2.061-2.141h-3.326v6.297h3.374
				C679.963,1059.472,680.948,1058.568,680.948,1057.461z"/>
			<path fill="#303644" d="M691.026,1053.986v7.602h-2.092v-7.652c-0.527-1.265-1.058-2.52-1.64-3.861
				c-0.805-1.81-1.889-4.383-2.591-6.115h2.215c0.733,1.657,2.192,5.545,2.847,7.175l0.23,1.362
				c0.023-0.196,0.148-1.163,0.196-1.388c0.585-1.409,2.274-5.846,2.826-7.149h2.265L691.026,1053.986z"/>
		</g>
	</g>
	<g>
		<path fill="#FFFFFF" stroke="#B2B2B7" stroke-miterlimit="10" d="M2148.873,258.21h-384.92c-23.483,0-42.52,19.037-42.52,42.52
			v216.105l-81.211,11.693l81.211,7.938v210.75c0,23.482,19.036,42.52,42.52,42.52h384.92c23.482,0,42.52-19.037,42.52-42.52V300.73
			C2191.392,277.247,2172.355,258.21,2148.873,258.21z"/>
		
			<text transform="matrix(0.9686 0 0 1 1827.269 306.2012)" fill="#D39422" font-family="'Arial-BoldMT'" font-size="17.2793" letter-spacing="1.032">HOW TO USE THIS VECTOR?</text>
		<g>
			<rect x="1754.039" y="333.035" fill="none" width="415.672" height="450.286"/>
			<text transform="matrix(1 0 0 1 1754.0386 340.1953)"><tspan x="0" y="0" fill="#808080" font-family="'Arial-BoldMT'" font-size="10">This vector graphic has been designed and brought to you by VectorOpenStock.com </tspan><tspan x="0" y="15.2" fill="#808080" font-family="'Arial-BoldMT'" font-size="10">This work is given away for free. In exchange, we ask you to respect some simple </tspan><tspan x="0" y="30.4" fill="#808080" font-family="'Arial-BoldMT'" font-size="10">rules. First, the design is under Creative Commons 3.0 Attribution License, it allows </tspan><tspan x="0" y="45.6" fill="#808080" font-family="'Arial-BoldMT'" font-size="10">you to use this vector (even commercially) as long as you credit us. </tspan><tspan x="0" y="60.8" fill="#808080" font-family="'Arial-BoldMT'" font-size="10">More information can be found here: </tspan><tspan x="0" y="76" fill="#D39422" font-family="'Arial-BoldMT'" font-size="10">www.vectoropenstock.com/terms-and-conditions/</tspan><tspan x="0" y="106.4" fill="#808080" font-family="'Arial-BoldMT'" font-size="10">If you are going to repost or publish this graphic resource in your site you MUST take </tspan><tspan x="0" y="121.6" fill="#808080" font-family="'Arial-BoldMT'" font-size="10">into account the following:</tspan><tspan x="0" y="152" fill="#808080" font-family="'Arial-BoldMT'" font-size="10">-Download of the vector file (zip file) MUST be done from our site. Hosting our designs </tspan><tspan x="0" y="167.2" fill="#808080" font-family="'Arial-BoldMT'" font-size="10">in servers other than ours will be considered an infringement of our copyrights and  we </tspan><tspan x="0" y="182.4" fill="#808080" font-family="'Arial-BoldMT'" font-size="10">will take legal actions.  </tspan><tspan x="0" y="197.601" fill="#808080" font-family="'Arial-BoldMT'" font-size="10">-Keep our brand stripe in the jpg preview. Never place your logo over our design, that </tspan><tspan x="0" y="212.8" fill="#808080" font-family="'Arial-BoldMT'" font-size="10">would be considered copyright infringement.</tspan><tspan x="0" y="228.001" fill="#808080" font-family="'Arial-BoldMT'" font-size="10">-Place a link in your post to the vector in our site (you can easily find it at </tspan><tspan x="0" y="243.2" fill="#D39422" font-family="'Arial-BoldMT'" font-size="10">http://www.vectoropenstock.com/our-vectors</tspan><tspan x="215.034" y="243.2" fill="#808080" font-family="'Arial-BoldMT'" font-size="10">)</tspan><tspan x="218.364" y="243.2" fill="#808080" font-family="'Arial-BoldMT'" font-size="10" letter-spacing="30">	</tspan><tspan x="0" y="258.399" fill="#808080" font-family="'Arial-BoldMT'" font-size="10">-Don&apos;t copy our descriptions or keywords, come up with your own text. Copying </tspan><tspan x="0" y="273.601" fill="#808080" font-family="'Arial-BoldMT'" font-size="10">descriptions and tags can be considered copyright infringement.</tspan><tspan x="0" y="304.001" fill="#808080" font-family="'Arial-BoldMT'" font-size="10">If you ever find a site infringing our copyrights or violating any of the conditions stated </tspan><tspan x="0" y="319.2" fill="#808080" font-family="'Arial-BoldMT'" font-size="10">above please inform us at </tspan><tspan x="125.596" y="319.2" fill="#D39422" font-family="'Arial-BoldMT'" font-size="10">http://www.vectoropenstock.com/contact</tspan><tspan x="0" y="349.601" fill="#808080" font-family="'Arial-BoldMT'" font-size="10">Thank you!</tspan><tspan x="0" y="364.8" fill="#808080" font-family="'Arial-BoldMT'" font-size="10">Enjoy vectors and life!</tspan><tspan x="0" y="380.001" fill="#808080" font-family="'Arial-BoldMT'" font-size="10">Peace and LOVE!</tspan><tspan x="0" y="410.399" fill="#808080" font-family="'Arial-BoldMT'" font-size="10">Vector Open Stock Team</tspan></text>
		</g>
	</g>
</g>
</svg>
